<svg width="187px" height="67px" viewBox="0 0 187 67" version="1.1" xmlns="http://www.w3.org/2000/svg" xmlns:xlink="http://www.w3.org/1999/xlink">
    <defs></defs>
    <g id="Page-1" stroke="none" stroke-width="1" fill="none" fill-rule="evenodd">
        <g id="Group">
            <path d="M96.0039062,17.5859375 C100.925806,17.5859375 105.015609,19.1738122 108.273438,22.3496094 C111.531266,25.5254065 113.160156,29.515601 113.160156,34.3203125 C113.160156,38.9843983 111.507829,42.8574065 108.203125,45.9394531 C104.898421,49.0214998 100.738306,50.5625 95.7226562,50.5625 C90.8710695,50.5625 86.8164225,48.9980625 83.5585938,45.8691406 C80.300765,42.7402187 78.671875,38.8320547 78.671875,34.1445312 C78.671875,29.4101326 80.3183429,25.4668126 83.6113281,22.3144531 C86.9043133,19.1620936 91.0351314,17.5859375 96.0039062,17.5859375 Z M95.6523438,23.3515625 C92.5820159,23.3515625 90.0625098,24.3593649 88.09375,26.375 C86.1249902,28.3906351 85.140625,30.9570157 85.140625,34.0742188 C85.140625,37.1679842 86.1484274,39.6933496 88.1640625,41.6503906 C90.1796976,43.6074317 92.7695154,44.5859375 95.9335938,44.5859375 C99.0742345,44.5859375 101.646474,43.595713 103.650391,41.6152344 C105.654307,39.6347557 106.65625,37.0976717 106.65625,34.0039062 C106.65625,30.9335784 105.613292,28.3906351 103.527344,26.375 C101.441396,24.3593649 98.8164221,23.3515625 95.6523438,23.3515625 Z" id="o" fill="#4285F4"></path>
            <path d="M136.003906,17.5859375 C140.925806,17.5859375 145.015609,19.1738122 148.273438,22.3496094 C151.531266,25.5254065 153.160156,29.515601 153.160156,34.3203125 C153.160156,38.9843983 151.507829,42.8574065 148.203125,45.9394531 C144.898421,49.0214998 140.738306,50.5625 135.722656,50.5625 C130.871069,50.5625 126.816423,48.9980625 123.558594,45.8691406 C120.300765,42.7402187 118.671875,38.8320547 118.671875,34.1445312 C118.671875,29.4101326 120.318343,25.4668126 123.611328,22.3144531 C126.904313,19.1620936 131.035131,17.5859375 136.003906,17.5859375 Z M135.652344,23.3515625 C132.582016,23.3515625 130.06251,24.3593649 128.09375,26.375 C126.12499,28.3906351 125.140625,30.9570157 125.140625,34.0742188 C125.140625,37.1679842 126.148427,39.6933496 128.164062,41.6503906 C130.179698,43.6074317 132.769515,44.5859375 135.933594,44.5859375 C139.074234,44.5859375 141.646474,43.595713 143.650391,41.6152344 C145.654307,39.6347557 146.65625,37.0976717 146.65625,34.0039062 C146.65625,30.9335784 145.613292,28.3906351 143.527344,26.375 C141.441396,24.3593649 138.816422,23.3515625 135.652344,23.3515625 Z" id="o" fill="#34A853"></path>
            <path d="M48.8828125,28.8359375 C48.8828125,25.3906078 50.1425655,22.6660256 52.6621094,20.6621094 C55.1816532,18.6581931 58.621072,17.65625 62.9804688,17.65625 L76.3046875,17.65625 L76.3046875,22.6484375 L69.765625,22.6484375 C71.0312563,23.9375064 71.9101538,25.1093697 72.4023438,26.1640625 C72.8945337,27.2187553 73.140625,28.4257745 73.140625,29.7851562 C73.140625,31.4726647 72.6601611,33.1308512 71.6992188,34.7597656 C70.7382764,36.38868 69.5019607,37.6367144 67.9902344,38.5039062 C66.4785081,39.3710981 64.0000172,40.0624974 60.5546875,40.578125 C58.1406129,40.9296893 56.9335938,41.7617122 56.9335938,43.0742187 C56.9335938,43.8242225 57.3847611,44.4394507 58.2871094,44.9199219 C59.1894576,45.400393 60.8242069,45.8984349 63.1914062,46.4140625 C67.1523636,47.2812543 69.7011662,47.960935 70.8378906,48.453125 C71.9746151,48.945315 72.9999954,49.6484329 73.9140625,50.5625 C75.4609452,52.1093827 76.234375,54.0546758 76.234375,56.3984375 C76.234375,59.4687654 74.8691543,61.9179596 72.1386719,63.7460937 C69.4081895,65.5742279 65.7578354,66.4882812 61.1875,66.4882812 C56.5702894,66.4882812 52.8847794,65.5683686 50.1308594,63.7285156 C47.3769394,61.8886627 46,59.4218905 46,56.328125 C46,51.9452906 48.7070042,49.1211001 54.1210938,47.8554688 C51.964833,46.4726493 50.8867188,45.1015693 50.8867188,43.7421875 C50.8867188,42.7109323 51.3496047,41.7734417 52.2753906,40.9296875 C53.2011765,40.0859333 54.4492109,39.4648457 56.0195312,39.0664062 C51.261695,36.9570207 48.8828125,33.5468986 48.8828125,28.8359375 Z M60.90625,23.2109375 C59.1718663,23.2109375 57.6953186,23.7968691 56.4765625,24.96875 C55.2578064,26.1406309 54.6484375,27.5468668 54.6484375,29.1875 C54.6484375,30.8515708 55.2460878,32.2285102 56.4414062,33.3183594 C57.6367247,34.4082086 59.1484284,34.953125 60.9765625,34.953125 C62.781259,34.953125 64.2871033,34.3964899 65.4941406,33.2832031 C66.7011779,32.1699163 67.3046875,30.7812583 67.3046875,29.1171875 C67.3046875,27.4296791 66.6953186,26.0234431 65.4765625,24.8984375 C64.2578064,23.7734319 62.7343841,23.2109375 60.90625,23.2109375 Z M59.3945312,51.5117188 C57.2382705,51.5117188 55.4746162,51.9687454 54.1035156,52.8828125 C52.732415,53.7968796 52.046875,54.9687429 52.046875,56.3984375 C52.046875,59.7265791 55.046845,61.390625 61.046875,61.390625 C63.8828267,61.390625 66.0800703,60.9746135 67.6386719,60.1425781 C69.1972734,59.3105427 69.9765625,58.1328201 69.9765625,56.609375 C69.9765625,55.1093675 68.9921973,53.8847704 67.0234375,52.9355469 C65.0546777,51.9863234 62.5117343,51.5117188 59.3945312,51.5117188 Z" id="g" fill="#FBBC05"></path>
            <path d="M158.882812,28.8359375 C158.882812,25.3906078 160.142566,22.6660256 162.662109,20.6621094 C165.181653,18.6581931 168.621072,17.65625 172.980469,17.65625 L186.304688,17.65625 L186.304688,22.6484375 L179.765625,22.6484375 C181.031256,23.9375064 181.910154,25.1093697 182.402344,26.1640625 C182.894534,27.2187553 183.140625,28.4257745 183.140625,29.7851562 C183.140625,31.4726647 182.660161,33.1308512 181.699219,34.7597656 C180.738276,36.38868 179.501961,37.6367144 177.990234,38.5039062 C176.478508,39.3710981 174.000017,40.0624974 170.554688,40.578125 C168.140613,40.9296893 166.933594,41.7617122 166.933594,43.0742187 C166.933594,43.8242225 167.384761,44.4394507 168.287109,44.9199219 C169.189458,45.400393 170.824207,45.8984349 173.191406,46.4140625 C177.152364,47.2812543 179.701166,47.960935 180.837891,48.453125 C181.974615,48.945315 182.999995,49.6484329 183.914062,50.5625 C185.460945,52.1093827 186.234375,54.0546758 186.234375,56.3984375 C186.234375,59.4687654 184.869154,61.9179596 182.138672,63.7460937 C179.408189,65.5742279 175.757835,66.4882812 171.1875,66.4882812 C166.570289,66.4882812 162.884779,65.5683686 160.130859,63.7285156 C157.376939,61.8886627 156,59.4218905 156,56.328125 C156,51.9452906 158.707004,49.1211001 164.121094,47.8554688 C161.964833,46.4726493 160.886719,45.1015693 160.886719,43.7421875 C160.886719,42.7109323 161.349605,41.7734417 162.275391,40.9296875 C163.201177,40.0859333 164.449211,39.4648457 166.019531,39.0664062 C161.261695,36.9570207 158.882812,33.5468986 158.882812,28.8359375 Z M170.90625,23.2109375 C169.171866,23.2109375 167.695319,23.7968691 166.476562,24.96875 C165.257806,26.1406309 164.648438,27.5468668 164.648438,29.1875 C164.648438,30.8515708 165.246088,32.2285102 166.441406,33.3183594 C167.636725,34.4082086 169.148428,34.953125 170.976562,34.953125 C172.781259,34.953125 174.287103,34.3964899 175.494141,33.2832031 C176.701178,32.1699163 177.304688,30.7812583 177.304688,29.1171875 C177.304688,27.4296791 176.695319,26.0234431 175.476562,24.8984375 C174.257806,23.7734319 172.734384,23.2109375 170.90625,23.2109375 Z M169.394531,51.5117188 C167.23827,51.5117188 165.474616,51.9687454 164.103516,52.8828125 C162.732415,53.7968796 162.046875,54.9687429 162.046875,56.3984375 C162.046875,59.7265791 165.046845,61.390625 171.046875,61.390625 C173.882827,61.390625 176.08007,60.9746135 177.638672,60.1425781 C179.197273,59.3105427 179.976562,58.1328201 179.976562,56.609375 C179.976562,55.1093675 178.992197,53.8847704 177.023438,52.9355469 C175.054678,51.9863234 172.511734,51.5117188 169.394531,51.5117188 Z" id="g" fill="#EA4335"></path>
            <polygon id="l" fill="#EA4335" points="35.6757812 0.88671875 42.0742188 0.88671875 42.0742188 50 35.6757812 50"></polygon>
            <polygon id="E" fill="#4285F4" points="0.4140625 0.88671875 28.2578125 0.88671875 28.2578125 7.14453125 7.4453125 7.14453125 7.4453125 22.1210938 27.5546875 22.1210938 27.5546875 28.4140625 7.4453125 28.4140625 7.4453125 43.671875 28.9257812 43.671875 28.9257812 49.9296875 0.4140625 49.9296875"></polygon>
        </g>
    </g>
</svg>
